<?xml version="1.0" standalone="no"?>
<!DOCTYPE svg PUBLIC "-//W3C//DTD SVG 20010904//EN"
 "http://www.w3.org/TR/2001/REC-SVG-20010904/DTD/svg10.dtd">
<svg version="1.0" xmlns="http://www.w3.org/2000/svg"
 width="319.000000pt" height="319.000000pt" viewBox="0 0 319.000000 319.000000"
 preserveAspectRatio="xMidYMid meet">
<metadata>
Created by potrace 1.11, written by Peter Selinger 2001-2013
</metadata>
<g transform="translate(0.000000,319.000000) scale(0.100000,-0.100000)"
fill="#000000" stroke="none">
<path d="M504 2470 c-109 -22 -217 -111 -267 -219 -56 -122 -39 -274 43 -382
197 -262 608 -174 680 146 61 270 -181 511 -456 455z"/>
<path d="M1450 2447 c-151 -63 -242 -205 -235 -365 13 -291 321 -460 574 -314
171 97 236 314 150 496 -41 89 -146 175 -244 201 -16 5 -63 9 -103 10 -60 1
-85 -4 -142 -28z"/>
<path d="M2529 2475 c-3 -2 -17 -6 -33 -9 -97 -18 -217 -123 -258 -225 -28
-70 -34 -198 -12 -260 58 -169 220 -278 392 -265 155 11 275 99 331 241 95
242 -79 509 -339 519 -43 2 -79 2 -81 -1z"/>
<path d="M568 1475 c-2 -1 -23 -6 -48 -9 -64 -9 -158 -58 -207 -108 -225 -234
-77 -625 247 -645 125 -8 230 34 310 124 139 158 130 384 -21 530 -46 45 -129
90 -181 98 -61 10 -96 13 -100 10z"/>
<path d="M1515 1465 c-126 -31 -208 -96 -264 -209 -93 -189 -8 -423 186 -514
51 -23 71 -27 158 -27 88 0 107 3 157 27 195 91 280 321 190 509 -27 56 -101
149 -118 149 -3 0 -19 9 -35 21 -65 46 -185 65 -274 44z"/>
<path d="M2532 1468 c-264 -40 -404 -340 -268 -573 87 -148 282 -221 446 -165
75 25 111 48 164 104 70 75 100 156 99 270 -3 227 -212 399 -441 364z"/>
</g>
</svg>
